<svg id="Layer_1" data-name="Layer 1" xmlns="http://www.w3.org/2000/svg" viewBox="0 0 649.25 226.56"><defs><style>.cls-1{fill:none;stroke:#1a2f47;stroke-miterlimit:10;stroke-width:12px;}.cls-2{fill:#1a2f47;}</style></defs><g id="Square"><rect class="cls-1" x="6" y="6" width="214.56" height="214.56"/><g id="Letters"><path class="cls-2" d="M101.83,93.37q0,34.07,0,68.14c0,2.93,0,2.4-2.37,2.4-8.8,0-17.61.34-26.38-.13a49.9,49.9,0,0,1-14.44-3.47A48.82,48.82,0,0,1,39.5,147.75a55.25,55.25,0,0,1-10.57-17A52.15,52.15,0,0,1,25.33,106a46.33,46.33,0,0,1,4.5-16c.89-1.87,1.7-2.76,3.85-2.72,7,.12,13.93,0,20.9.06a5.16,5.16,0,0,1,1.34.37,8.49,8.49,0,0,1-.84,1,31.84,31.84,0,0,0-8.5,13.41,31.38,31.38,0,0,0,3.92,27,35.26,35.26,0,0,0,14.3,12.23,39,39,0,0,0,8.88,2.53c2.52.51,5.25,0,7.89,0,.11-2.43.33-4.87.33-7.31q0-54.46,0-108.92c0-1.16,0-2.32,0-3.48-.05-1,.15-1.52,1.3-1.51,5.81,0,11.62,0,17.43.06a1.65,1.65,0,0,1,1.15,1,25.22,25.22,0,0,1,0,3.48Z"/><path class="cls-2" d="M124.73,133.26q0-34.08,0-68.14c0-2.41,0-2.44,2.31-2.45,9,0,18-.39,26.87.16a48.65,48.65,0,0,1,14,3.41A49.83,49.83,0,0,1,187,78.79a54.54,54.54,0,0,1,10.6,17,52.31,52.31,0,0,1,3.61,24.79,46.3,46.3,0,0,1-4.48,16c-.87,1.8-1.62,2.81-3.82,2.77-7-.14-13.94-.05-20.91-.07a6,6,0,0,1-1.35-.33,6.93,6.93,0,0,1,.77-1,32.19,32.19,0,0,0,8.51-13.4,31.29,31.29,0,0,0-3.87-27c-3.77-5.33-8.28-9.59-14.29-12.24a39.25,39.25,0,0,0-9.36-2.59c-2.4-.41-4.93,0-7.41,0-.13,2.44-.36,4.87-.37,7.3q0,54.47,0,108.92c0,1.16,0,2.32,0,3.48,0,.92,0,1.56-1.25,1.56q-8.72-.06-17.42,0c-1.19,0-1.31-.61-1.27-1.55,0-1.15,0-2.32,0-3.48Z"/></g><path class="cls-2" d="M261.47,120.36V62.94l-7.83-.81V60h24.93v2.16l-7.83.81v52.38q0,19.71-10.89,24.93a22.68,22.68,0,0,1-9.72,2,19.45,19.45,0,0,1-9.09-1.89,6.63,6.63,0,0,1-3.6-6.39,4.19,4.19,0,0,1,1.67-3.29,5.43,5.43,0,0,1,3.55-1.39,10.68,10.68,0,0,1,3.06.36,12.83,12.83,0,0,0-.54,3.51q0,6,5.76,6Q261.47,139.17,261.47,120.36Z"/><path class="cls-2" d="M295.49,121.17a13.85,13.85,0,0,1-8.77-2.84,9.51,9.51,0,0,1-3.65-8q.09-6.93,7-10.35t19.66-3.42V88.86q0-11.43-8.28-11.43a8.13,8.13,0,0,0-6.84,3.51,9.85,9.85,0,0,0-1.8,6,15.75,15.75,0,0,0,.36,3.24,4.36,4.36,0,0,1-2.56.9,6.48,6.48,0,0,1-2.57-.54,4.08,4.08,0,0,1-2.88-4.14,8.84,8.84,0,0,1,3-6.84q4.86-4.41,13.41-4.41t12.42,3.64q3.87,3.65,3.87,11.48v27.27l7.56.36.09,2.07-15,1.08-.81-8Q305.48,121.17,295.49,121.17Zm-3.6-10.8q0,5.85,4.77,6.93a8.53,8.53,0,0,0,2.07.27,11.61,11.61,0,0,0,7.11-2.93,10,10,0,0,0,3.87-7.87V99Q291.89,99.21,291.89,110.37Z"/><path class="cls-2" d="M324.83,76.17h18.9v2.34l-6.12.54,12.78,31.41,10.8-30.24L354,78.51V76.17h17.28v2.34L365,80.22,350,120.09h-3.6L329.06,79l-4.23-.63Z"/><path class="cls-2" d="M375.05,120.09v-2.16l5.94-.45V79.23L373.07,79V76.89l16.74-1.17v41.76l5.94.45v2.16Zm15.3-58.64a5.22,5.22,0,0,1-1.53,3.78A5.11,5.11,0,0,1,385,66.81a5.23,5.23,0,0,1-5.36-5.36,5.34,5.34,0,0,1,1.53-3.87A5.06,5.06,0,0,1,385,56a5.16,5.16,0,0,1,3.83,1.62A5.33,5.33,0,0,1,390.35,61.45Z"/><path class="cls-2" d="M407.72,114.78q-5.67-6.3-5.67-16.65t6-16.65a19.89,19.89,0,0,1,15.07-6.3q9.09,0,13.59,4.09t4.5,11.39a26.24,26.24,0,0,1-.36,4.32H411.77v3.15q0,10.08,2.88,15.25t9.45,5.18q9.27,0,14.31-8.1,2,.63,2,1.89,0,2.25-4.14,5.22a17.83,17.83,0,0,1-5.58,2.47,28.94,28.94,0,0,1-8,1Q413.39,121.08,407.72,114.78Zm24.93-26a14,14,0,0,0-1.71-7.11q-2.34-4-7.56-4-9.72,0-11.34,14h20.43A25.42,25.42,0,0,0,432.65,88.77Z"/><path class="cls-2" d="M476.84,75.09a5.59,5.59,0,0,1,3.69,1.12,3.85,3.85,0,0,1,1.35,3.11q0,3.42-2.61,4.5-1.44-1.17-5.22-1.17a12.29,12.29,0,0,0-7.25,2.47c-2.31,1.66-3.46,3.53-3.46,5.63v26.73l8.1.45v2.16H448.58v-2.16l5.94-.36V79.14l-7.11-.36V76.71l15.93-1-.54,11.07h.36a17.45,17.45,0,0,1,5.62-8.28Q472.88,75.09,476.84,75.09Z"/><path class="cls-2" d="M328.41,142.65a16.49,16.49,0,0,1-2.16,8.64,14.32,14.32,0,0,1-5.85,5.49,37.07,37.07,0,0,1-16.56,3.42q-2.34,0-6.3-.36v25.29l6.93.45v2.16h-23v-2.16l6.75-.45V130.59l-7.83-1v-2.16h16.83l10.71-.27Q328.41,127.17,328.41,142.65ZM301.5,157.41q8.19,0,12.6-4a13.61,13.61,0,0,0,4.41-10.66q0-6.71-3.15-9.81t-10.08-3.11q-3.06,0-7.74.36v27A32.35,32.35,0,0,0,301.5,157.41Z"/><path class="cls-2" d="M338.76,182.43q-5.67-6.3-5.67-16.65t6-16.65a19.92,19.92,0,0,1,15.08-6.3q9.09,0,13.59,4.1t4.5,11.38a26.24,26.24,0,0,1-.36,4.32H342.81v3.15q0,10.08,2.88,15.26t9.45,5.17q9.27,0,14.31-8.1,2,.63,2,1.89,0,2.25-4.14,5.22a18.06,18.06,0,0,1-5.58,2.48,29.34,29.34,0,0,1-8,1Q344.43,188.73,338.76,182.43Zm24.93-26a14,14,0,0,0-1.71-7.11q-2.34-4-7.56-4-9.72,0-11.34,14h20.43A25.42,25.42,0,0,0,363.69,156.42Z"/><path class="cls-2" d="M394.65,153.36q4.05-10.44,16.29-10.44a13.67,13.67,0,0,1,9.9,3.65q3.78,3.65,3.78,10.39,0,11.61-.72,28.17l6.21.45v2.16H410.22v-2.16l4.86-.36q.72-20.34.72-23.31c0-2,0-3.49-.09-4.54a34.29,34.29,0,0,0-.5-3.87,10.82,10.82,0,0,0-1.21-3.65,6.71,6.71,0,0,0-6.21-3.33,11.44,11.44,0,0,0-9.45,4.77,16.57,16.57,0,0,0-3.69,10.35v23.49l6.75.45v2.16H379.89v-2.16l5.94-.45V147.06l-7.65-.36v-2.07l16.11-1.08-.45,9.72Z"/><path class="cls-2" d="M448.2,188.82a13.87,13.87,0,0,1-8.78-2.83,9.52,9.52,0,0,1-3.64-8q.09-6.93,7-10.35t19.67-3.42v-7.74q0-11.43-8.28-11.43a8.12,8.12,0,0,0-6.84,3.51,9.79,9.79,0,0,0-1.8,6,15.75,15.75,0,0,0,.36,3.24,4.41,4.41,0,0,1-2.57.9,6.43,6.43,0,0,1-2.56-.54,4.06,4.06,0,0,1-2.88-4.14,8.84,8.84,0,0,1,3-6.84c3.24-2.94,7.7-4.41,13.41-4.41s9.84,1.22,12.42,3.65,3.87,6.25,3.87,11.47v27.27l7.56.36.09,2.07-15,1.08-.81-8Q458.19,188.82,448.2,188.82ZM444.6,178c0,3.9,1.58,6.21,4.77,6.93a8.47,8.47,0,0,0,2.07.27,11.59,11.59,0,0,0,7.11-2.92,10,10,0,0,0,3.87-7.88v-7.74Q444.6,166.86,444.6,178Z"/><path class="cls-2" d="M501.47,187.74h-20.7v-2.16l5.94-.45v-62l-8-.36v-2.07l16.83-1.89v66.33l5.94.45Z"/><path class="cls-2" d="M552.86,165.78q0,10-6,16.47t-16.42,6.48q-10.39,0-16.43-6.48t-6-16.47q0-10,6-16.47t16.43-6.48q10.4,0,16.42,6.48T552.86,165.78Zm-35.1,0q0,20.79,12.65,20.79t12.64-20.79q0-10.08-2.88-15.39t-9.72-5.31q-6.84,0-9.76,5.31T517.76,165.78Z"/><path class="cls-2" d="M561,185.67l28.44-39-22.68.27-3.06,9.54-2.34-.09.09-12.69,37.89-.18v2.16l-28.17,39,22-.27,3.6-9.45H599l-.63,12.69-37.44.18Z"/><path class="cls-2" d="M619.28,188.82a13.85,13.85,0,0,1-8.77-2.83,9.52,9.52,0,0,1-3.65-8q.09-6.93,7-10.35t19.66-3.42v-7.74q0-11.43-8.28-11.43a8.13,8.13,0,0,0-6.84,3.51,9.85,9.85,0,0,0-1.8,6,15.75,15.75,0,0,0,.36,3.24,4.36,4.36,0,0,1-2.56.9,6.48,6.48,0,0,1-2.57-.54,4.08,4.08,0,0,1-2.88-4.14,8.84,8.84,0,0,1,3-6.84q4.86-4.41,13.41-4.41t12.42,3.65q3.87,3.65,3.87,11.47v27.27l7.56.36.09,2.07-15,1.08-.81-8Q629.27,188.82,619.28,188.82Zm-3.6-10.8q0,5.85,4.77,6.93a8.53,8.53,0,0,0,2.07.27,11.59,11.59,0,0,0,7.11-2.92,10,10,0,0,0,3.87-7.88v-7.74Q615.68,166.86,615.68,178Z"/></g></svg>